# xmcd
#
# Track frame offsets:
#	150
#	12820
#	30522
#	43557
#	61305
#	77903
#	94650
#	107321
#	125022
#	138057
#	155805
#	172404
#
# Disc length: 2522 seconds
#
# Revision: 2
# Processed by: cddbd v1.5.2PL0 Copyright (c) Steve Scherf et al.
# Submitted via: audiograbber 1.83.01
#
DISCID=9509d80c
DTITLE=Various Artist - CB20051 Hot Hits  Vol.51
DYEAR=1900
DGENRE=Karaoke
TTITLE0=Rick Trevino - Only Lonely Me (Vocals)
TTITLE1=Dixie Chicks, The - Wide Open Spaces (Vocals)
TTITLE2=Clay Walker - You're Beginning to Get to Me (Vocals)
TTITLE3=Collin Raye - Someone Your Used to Know (Vocals)
TTITLE4=Terri Clark - You're Easy on the Eyes (Vocals)
TTITLE5=Ty Herndon - It Must Be Love (Vocals)
TTITLE6=Rick Trevino - Only Lonely Me (Performance Tracks)
TTITLE7=Dixie Chicks, The - Wide Open Spaces (Performance Tracks)
TTITLE8=Clay Walker - You're Beginning to Get to Me (Performance Tracks)
TTITLE9=Collin Raye - Someone You Used to Know (Performance Tracks)
TTITLE10=Terri Clark - Your Easy on the Eyes (Performance Tracks)
TTITLE11=Ty Herndon - It Must be Love (Performance Tracks)
EXTD=
EXTT0=
EXTT1=
EXTT2=
EXTT3=
EXTT4=
EXTT5=
EXTT6=
EXTT7=
EXTT8=
EXTT9=
EXTT10=
EXTT11=
PLAYORDER=
